<?xml version="1.0" encoding="utf-8"?>
<!-- Generator: Adobe Illustrator 25.2.0, SVG Export Plug-In . SVG Version: 6.00 Build 0)  -->
<svg version="1.1" id="Layer_1" xmlns="http://www.w3.org/2000/svg" xmlns:xlink="http://www.w3.org/1999/xlink" x="0px"
	y="0px" viewBox="0 0 1920 1210" style="enable-background:new 0 0 1920 1210;" xml:space="preserve">
	<style type="text/css">
		.st0 {
			filter: url(#Adobe_OpacityMaskFilter);
		}

		.st1 {
			fill-rule: evenodd;
			clip-rule: evenodd;
			fill: #FFFFFF;
		}

		.st2 {
			mask: url(#mask-2_1_);
		}

		.st3 {
			opacity: 0.7;
		}

		.st4 {
			fill: url(#路径_385_);
		}

		.st5 {
			opacity: 0.58;
			fill: url(#路径_386_);
			enable-background: new;
		}

		.st6 {
			fill: url(#路径_387_);
		}

		.st7 {
			opacity: 0.58;
			fill: url(#矩形_3_);
			enable-background: new;
		}

		.st8 {
			fill: #FF66E8;
			stroke: #231F20;
			stroke-width: 2.83;
			stroke-linejoin: round;
		}

		.st9 {
			fill: #FFFFFF;
			stroke: #D0D2D3;
			stroke-width: 2.64;
			stroke-linejoin: round;
		}

		.st10 {
			fill: #FFFFFF;
			stroke: #D0D2D3;
			stroke-width: 2.64;
			stroke-linecap: round;
			stroke-linejoin: round;
		}

		.st11 {
			fill: #FFF1E0;
		}

		.st12 {
			fill: #72F596;
			stroke: #231F20;
			stroke-width: 2.64;
			stroke-linejoin: round;
		}

		.st13 {
			fill: none;
			stroke: #F1F2F2;
			stroke-width: 3.78;
			stroke-linecap: round;
			stroke-linejoin: round;
		}

		.st14 {
			fill: none;
			stroke: #231F20;
			stroke-width: 2.64;
			stroke-linejoin: round;
		}

		.st15 {
			fill: #FF95FA;
		}

		.st16 {
			fill: #E23EDC;
			stroke: #231F20;
			stroke-width: 2.64;
			stroke-linejoin: round;
		}

		.st17 {
			fill: #FF787C;
			stroke: #231F20;
			stroke-width: 2.83;
			stroke-linejoin: round;
		}

		.st18 {
			fill: #FF76F8;
			stroke: #231F20;
			stroke-width: 2.64;
			stroke-linejoin: round;
		}

		.st19 {
			fill: #E23EDC;
			stroke: #231F20;
			stroke-width: 2.83;
			stroke-linejoin: round;
		}

		.st20 {
			fill: #FF95FA;
			stroke: #231F20;
			stroke-width: 2.83;
			stroke-linejoin: round;
		}

		.st21 {
			fill: #00FF7E;
		}

		.st22 {
			fill: #F2757E;
			stroke: #231F20;
			stroke-width: 2.83;
			stroke-linejoin: round;
		}

		.st23 {
			fill: #03A9FF;
			stroke: #231F20;
			stroke-width: 2.83;
			stroke-linejoin: round;
		}

		.st24 {
			fill: none;
			stroke: #231F20;
			stroke-width: 2.64;
			stroke-linecap: round;
			stroke-linejoin: round;
		}

		.st25 {
			fill: none;
			stroke: #231F20;
			stroke-width: 2.64;
			stroke-linecap: round;
			stroke-linejoin: round;
			stroke-dasharray: 35.75;
		}

		.st26 {
			fill: #FF95FA;
			stroke: #231F20;
			stroke-width: 2.64;
			stroke-linejoin: round;
		}

		.st27 {
			fill: #FF787C;
			stroke: #231F20;
			stroke-width: 2.64;
			stroke-linejoin: round;
		}

		.st28 {
			fill: #FF66E8;
			stroke: #231F20;
			stroke-width: 2.64;
			stroke-linejoin: round;
		}

		.st29 {
			fill: #E23EDC;
		}

		.st30 {
			fill: #F7B6EB;
			stroke: #231F20;
			stroke-width: 2.64;
			stroke-linejoin: round;
		}

		.st31 {
			fill: #72F596;
			stroke: #231F20;
			stroke-width: 2.83;
			stroke-linejoin: round;
		}

		.st32 {
			fill: #26A9E0;
		}

		.st33 {
			fill: none;
			stroke: #3549AA;
			stroke-width: 2.64;
			stroke-linejoin: round;
		}

		.st34 {
			fill: #00F1FF;
		}

		.st35 {
			fill: url(#路径_388_);
		}

		.st36 {
			fill: none;
			stroke: #231F20;
			stroke-width: 2.66;
			stroke-linejoin: round;
		}

		.st37 {
			fill: url(#路径_389_);
			stroke: #D0D2D3;
			stroke-width: 2.64;
			stroke-linejoin: round;
		}

		.st38 {
			fill: none;
			stroke: #00ADEE;
			stroke-width: 2.64;
			stroke-linejoin: round;
		}

		.st39 {
			fill: url(#路径_390_);
		}

		.st40 {
			fill: url(#路径_391_);
		}

		.st41 {
			fill: url(#路径_392_);
		}

		.st42 {
			fill: none;
			stroke: #26A9E0;
			stroke-width: 2.64;
			stroke-linejoin: round;
		}

		.st43 {
			fill: none;
			stroke: #231F20;
			stroke-width: 5.66;
			stroke-linejoin: round;
		}

		.st44 {
			fill: #27AAE1;
		}

		.st45 {
			fill: none;
			stroke: #1C75BC;
			stroke-width: 2.64;
			stroke-linejoin: round;
		}

		.st46 {
			fill: url(#路径_393_);
		}

		.st47 {
			fill: none;
			stroke: #27AAE1;
			stroke-width: 2.64;
			stroke-linejoin: round;
		}

		.st48 {
			fill: #72F596;
		}

		.st49 {
			fill: url(#路径_394_);
		}

		.st50 {
			fill: #00AEEF;
			stroke: #231F20;
			stroke-width: 2.8;
			stroke-linecap: round;
			stroke-linejoin: round;
		}

		.st51 {
			fill: #1C75BC;
			stroke: #231F20;
			stroke-width: 2.83;
			stroke-linejoin: round;
		}

		.st52 {
			fill: #A398EB;
			stroke: #58595B;
			stroke-width: 2.83;
			stroke-linejoin: round;
		}

		.st53 {
			fill: #1C75BC;
			stroke: #231F20;
			stroke-width: 2.8;
			stroke-linecap: round;
			stroke-linejoin: round;
		}

		.st54 {
			fill: url(#路径_396_);
		}

		.st55 {
			fill: #00ADEE;
		}

		.st56 {
			fill: #E23EDC;
			stroke: #58595B;
			stroke-width: 4.25;
			stroke-linejoin: round;
		}

		.st57 {
			fill: none;
			stroke: #1C75BC;
			stroke-width: 2.83;
			stroke-linejoin: round;
		}

		.st58 {
			fill: #1C75BC;
		}

		.st59 {
			fill: none;
			stroke: #58595B;
			stroke-width: 2.13;
			stroke-linejoin: round;
		}

		.st60 {
			fill: url(#路径_397_);
		}

		.st61 {
			fill: none;
			stroke: #939598;
			stroke-width: 1.42;
			stroke-linejoin: round;
		}

		.st62 {
			fill: none;
		}

		.st63 {
			opacity: 0.34;
			fill: #A398EB;
			stroke: #58595B;
			stroke-width: 2.64;
			stroke-linejoin: round;
			enable-background: new;
		}

		.st64 {
			filter: url(#Adobe_OpacityMaskFilter_1_);
		}

		.st65 {
			opacity: 0.2;
			mask: url(#mask-17_1_);
		}

		.st66 {
			filter: url(#Adobe_OpacityMaskFilter_2_);
		}

		.st67 {
			mask: url(#mask-2_2_);
		}

		.st68 {
			fill: #414042;
		}

		.st69 {
			fill: #FFE922;
		}

		.st70 {
			fill: #FFFFFF;
			stroke: #231F20;
			stroke-width: 2.83;
			stroke-linejoin: round;
		}

		.st71 {
			fill: #FBB040;
		}

		.st72 {
			fill: #FCF7B4;
		}

		.st73 {
			opacity: 0.59;
			fill: #FFFFFF;
			enable-background: new;
		}

		.st74 {
			fill: #EABC9A;
		}

		.st75 {
			opacity: 0.61;
			fill: #F2757E;
			enable-background: new;
		}

		.st76 {
			fill: #FFF1B8;
		}

		.st77 {
			fill: #EAE3C3;
		}

		.st78 {
			fill: none;
			stroke: #231F20;
			stroke-width: 2;
			stroke-linecap: round;
			stroke-linejoin: round;
		}

		.st79 {
			fill: none;
			stroke: #231F20;
			stroke-width: 2;
			stroke-linejoin: round;
		}

		.st80 {
			fill: #FFFFFF;
			stroke: #231F20;
			stroke-width: 2;
			stroke-linecap: round;
			stroke-linejoin: round;
		}

		.st81 {
			opacity: 0.54;
			fill: #FFFFFF;
			stroke: #231F20;
			stroke-width: 2;
			stroke-linecap: round;
			stroke-linejoin: round;
			enable-background: new;
		}

		.st82 {
			opacity: 0.54;
			fill: #E6E7E8;
			enable-background: new;
		}

		.st83 {
			fill: #F1F1F2;
		}

		.st84 {
			fill: #37B34A;
		}

		.st85 {
			filter: url(#Adobe_OpacityMaskFilter_3_);
		}

		.st86 {
			mask: url(#mask-2_4_);
			fill: #FFFFFF;
		}
	</style>
	<g id="网站">
		<g id="彩色图">
			<defs>
				<filter id="Adobe_OpacityMaskFilter" filterUnits="userSpaceOnUse" x="-763.3" y="-1246.1" width="3426.8"
					height="2913.6">
					<feColorMatrix type="matrix" values="1 0 0 0 0  0 1 0 0 0  0 0 1 0 0  0 0 0 1 0" />
				</filter>
			</defs>
			<mask maskUnits="userSpaceOnUse" x="-763.3" y="-1246.1" width="3426.8" height="2913.6" id="mask-2_1_">
				<g class="st0">
					<rect id="path-1_1_" class="st1" width="1920" height="1210" />
				</g>
			</mask>
			<g class="st2">
				<g transform="translate(-761.000000, -1244.000000)">
					<g id="编组" class="st3">

						<linearGradient id="路径_385_" gradientUnits="userSpaceOnUse" x1="1221.3647" y1="2349.0999"
							x2="1221.3647" y2="2348.9739"
							gradientTransform="matrix(3402.4102 0 0 -914.1799 -4153877.75 2149324.25)">
							<stop offset="0" style="stop-color:#F6B8EB" />
							<stop offset="1" style="stop-color:#A398EB" />
						</linearGradient>
						<polygon id="路径" class="st4" points="3407.4,1810.6 4.9,1810.6 4.9,2724.7 3386.9,2724.7 					" />

						<radialGradient id="路径_386_" cx="1220.9911" cy="2348.989" r="1.1848"
							gradientTransform="matrix(880.7406 0 0 -880.74 -1073621.375 2070773.375)"
							gradientUnits="userSpaceOnUse">
							<stop offset="0" style="stop-color:#FED4DA" />
							<stop offset="0.46" style="stop-color:#F6B8EB" />
							<stop offset="1" style="stop-color:#A398EB" />
						</radialGradient>
						<polygon id="路径_1_" class="st5"
							points="1822.5,1811.4 1822.5,1880.8 1914.9,1935.4 1950.1,1939.1 1950.9,1956.8 
						2175.8,2119.1 2179.2,2188.6 2398.8,2352.7 2548.4,2355.1 3067.4,2690.9 370.4,2690.9 1170.9,2157.7 1172,2102.3 
						1242.4,2111.9 1323.4,2059.1 1427.2,1993.7 1427.2,1810.6 1456,1810.6 1456,1890.3 1535.3,1908.2 1595.8,1875.3 1595.8,1810.2 
						1613.2,1810.2 1613.2,1852.5 1641.4,1841.1 1641.4,1811.4 1776.8,1811.4 1776.8,1843.1 1803.8,1857.4 1803.8,1811.5 					" />

						<radialGradient id="路径_387_" cx="1220.7703" cy="2348.2856" r="2.4895"
							gradientTransform="matrix(666.9691 0 0 -666.97 -812644.625 1567961.25)"
							gradientUnits="userSpaceOnUse">
							<stop offset="0.15" style="stop-color:#FED4DA" />
							<stop offset="1" style="stop-color:#A398EB" />
						</radialGradient>
						<polygon id="路径_2_" class="st6"
							points="4.8,1810.8 3416.3,1810.8 3416.3,1143.8 0.5,1143.8 					" />

						<radialGradient id="矩形_3_" cx="1220.9153" cy="2348.1396" r="0.8466"
							gradientTransform="matrix(786.679 0 0 -786.68 -958737.125 1849040.5)"
							gradientUnits="userSpaceOnUse">
							<stop offset="1.000000e-02" style="stop-color:#FFFFFF;stop-opacity:0" />
							<stop offset="0.15" style="stop-color:#FFFFFF" />
							<stop offset="1" style="stop-color:#FED4DA" />
						</radialGradient>
						<rect id="矩形" x="38.2" y="1024.2" class="st7" width="3386.3" height="786.7" />
						<polygon id="路径_3_" class="st8"
							points="1409.9,2296.8 1774.8,2748.5 465.4,2748.5 982.8,2356.1 					" />
						<path id="路径_4_" class="st9" d="M1203.7,1445.5c-34.5-11.5-111.6-81.9,77.3-81.9s137.3-78.2,89.3-78.7
						c-55-0.6-89.2,5.9-178.9-4c-57.6-6.3-8.9-47.6-8.9-47.6s-7.9-43.1,381.6-46.5c222-2,262.7,108,116,108
						c-140.4,0-170.5,17.8-107.1,28.7c63.4,10.9,267.6,74.3,110,85.2s-173,14.3-118,22.8C1920.4,1486.4,1381.8,1504.7,1203.7,1445.5
						z" />
						<path id="路径_5_" class="st9" d="M2073.1,1535.7c-110.5,1.7-263.7,6.2-263.7-16.1s202.2-3.2,173.2-30.5
						s-111.5-71.4-42.4-98.1s195.5-23.8,162.1-51.3s-207.4-37.9-136.8-66.2s233.4-23,233.4-23v223.7L2073.1,1535.7z" />
						<path id="路径_6_" class="st9"
							d="M1836.6,1735c-144.7,0-291.4-3-212.1-20.8c79.3-17.8,279.5-25.8,279.5-25.8" />
						<path id="路径_7_" class="st9" d="M1850.5,1694.3c-106.1,1-178.4-5.9-178.4-28.8c0-22.8,110-20.8,140.8-20.8
						s70.4,2,70.4-13.9s-89.7-12.9-78.8-25.8c10.9-12.9,228-16.8,228-16.8l21.8,33l-30.5,113.7l-173.2-0.8V1694.3" />
						<path id="路径_8_" class="st9" d="M1359.1,1653.2c127.1,3.2,253.5,3,280.3-3.7s-48.3-18.6-17.8-22.3
						c30.5-3.7,82.5-16.4,37.2-21.6c-45.3-5.2-130.8-23.8-84-29c46.8-5.2,179.2-6.7,117.5-22.3c-61.7-15.6-248.3-44.6-341.2-3
						c-92.9,41.6,234.5,55.6,208.2,70.7c-15.6,8.9-121.2,2.2-209.7,8.9C1231.6,1639.8,1300.4,1651.7,1359.1,1653.2z" />
						<polygon id="路径_9_" class="st10" points="1483.3,799.9 1576,1411.3 1342.7,797.7 					" />
						<polyline id="路径_10_" class="st10" points="1161.8,813.8 1407.9,1388.5 1082.3,941 					" />
						<path id="路径_11_" class="st11" d="M1359.1,1653.2c127.1,3.2,253.5,3,280.3-3.7s-48.3-18.6-17.8-22.3
						c30.5-3.7,82.5-16.4,37.2-21.6c-45.3-5.2-130.8-23.8-84-29c46.8-5.2,179.2-6.7,117.5-22.3c-61.7-15.6-248.3-44.6-341.2-3
						c-92.9,41.6,234.5,55.6,208.2,70.7c-15.6,8.9-121.2,2.2-209.7,8.9C1231.6,1639.8,1300.4,1651.7,1359.1,1653.2z" />
						<path id="路径_12_" class="st11" d="M1827.8,1735.6c-32.7,0-226.8-3-226.8-12.6c0-9.6,154.6-28.6,192.6-28.6
						c0,0-115.2-1.1-121.6-27.5c-6.3-26.4,142.4-21.6,142.4-21.6s68.4,5.2,68.4-14.1s-64.3-8.2-78.8-22.7c-1.8-2.5,1.1-8.7,47-12.3
						c45.9-3.5,353.5-14.8,353.5-14.8l8.8,154.6L1827.8,1735.6z" />
						<path id="路径_13_" class="st11" d="M1203.7,1445.5c-34.5-11.5-111.6-81.9,77.3-81.9s137.3-78.2,89.3-78.7
						c-55-0.6-89.2,5.9-178.9-4c-57.6-6.3-8.9-47.6-8.9-47.6s-7.9-43.1,381.6-46.5c222-2,262.7,108,116,108
						c-140.4,0-170.5,17.8-107.1,28.7c63.4,10.9,267.6,74.3,110,85.2s-173,14.3-118,22.8C1920.4,1486.4,1381.8,1504.7,1203.7,1445.5
						z" />
						<path id="路径_14_" class="st11" d="M2073.1,1535.7c-110.5,1.7-263.7,6.2-263.7-16.1s202.2-3.2,173.2-30.5
						s-111.5-71.4-42.4-98.1s195.5-23.8,162.1-51.3s-207.4-37.9-136.8-66.2s233.4-23,233.4-23c153.7,8.7,238.8,84.6,154.1,190.1
						c-45.1,56.2-113.1,89-185.1,91.7L2073.1,1535.7z" />
						<polygon id="路径_15_" class="st12" points="1483.3,799.9 1576,1411.3 1342.7,797.7 					" />
						<polyline id="路径_16_" class="st12" points="1161.8,813.8 1407.9,1388.5 1082.3,941 					" />
						<line id="路径_17_" class="st13" x1="1805.2" y1="1411.6" x2="1975.4" y2="968.7" />
						<polyline id="路径_18_" class="st13" points="1812.8,1390.6 1792.7,1346.9 1830.4,1346.9 1805.7,1296 1847.2,1301.6 
						1813.5,1253.6 					" />
						<line id="路径_19_" class="st13" x1="1777.2" y1="1400.9" x2="1893.2" y2="939" />
						<polygon id="路径_20_" class="st14" points="1483.3,799.9 1576,1411.3 1342.7,797.7 					" />
						<polyline id="路径_21_" class="st14" points="1161.8,813.8 1407.9,1388.5 1082.3,941 					" />
						<polygon id="路径_22_" class="st15"
							points="1777.7,2239 1849.8,2136.1 2430.6,2349.4 2142.9,2463.6 					" />
						<polygon id="路径_23_" class="st16" points="1731.9,1919.6 1630,2047 1572.5,1954.2 					" />
						<polygon id="路径_24_" class="st8"
							points="1594,1985 1332.3,2218.5 1213.9,2179.3 1446.8,2002.9 					" />
						<polygon id="路径_25_" class="st17" points="1629,2035.6 1594,1985 1377.7,2173.9 					" />
						<polygon id="路径_26_" class="st18"
							points="1901.1,1949.1 2430.6,2349.4 2142.9,2270.2 1629,2035.6 					" />
						<polygon id="路径_27_" class="st19"
							points="1409.9,2296.8 970.5,2365.7 1213.9,2179.3 1324.2,2193.9 					" />
						<polygon id="路径_28_" class="st20"
							points="1849.8,2136.1 1629,2035.6 1324.2,2193.9 1443.1,2335.9 1777.7,2239 					" />
						<polygon id="路径_29_" class="st19"
							points="1777.7,2239 1932.3,2693.5 2681.5,2693.5 2316.8,2354.9 					" />
						<polygon id="路径_30_" class="st21"
							points="1922.6,2092.8 2157.6,2193.9 2118.2,2199.9 1883.2,2098.8 					" />
						<polygon id="路径_31_" class="st22" points="1863.9,2211.8 2316.8,2354.9 2159.1,2604.7 					" />
						<polygon id="路径_32_" class="st22" points="1640.9,2140.4 1497,2322.5 1426.8,2301 					" />
						<polygon id="路径_33_" class="st22" points="1613.1,2113.6 1365.8,2262.6 1303.3,2236.6 					" />
						<polygon id="路径_34_" class="st23" points="1447.9,2082.8 1406.4,2139.9 1604.4,2086.1 					" />
						<polygon id="路径_35_" class="st21"
							points="1869.8,2051.2 2021.5,2106.2 2056.2,2101.2 1902.3,2045.5 					" />
						<polygon id="路径_36_" class="st21"
							points="1905.9,2025.3 2054.2,2075.5 2030.8,2081.3 1885.1,2029.2 					" />
						<line id="路径_37_" class="st24" x1="1892.7" y1="2093.8" x2="1907.4" y2="2100" />
						<line id="路径_38_" class="st25" x1="1940.3" y1="2113.9" x2="2121.4" y2="2190.4" />
						<line id="路径_39_" class="st24" x1="2137.9" y1="2197.4" x2="2152.6" y2="2203.6" />
						<line id="路径_40_" class="st24" x1="1880.3" y1="2045.5" x2="2018.1" y2="2097.3" />
						<line id="路径_41_" class="st24" x1="1897.6" y1="2027.9" x2="2028.9" y2="2072.5" />
						<polygon id="路径_42_" class="st26" points="1550.2,1922.2 1594,1985 1446.8,2002.9 					" />
						<polygon id="路径_43_" class="st27" points="1449.1,1905 1445.1,2004.6 1537,1933 					" />
						<polygon id="路径_44_" class="st27" points="1731.9,1919.6 1633.1,2035.2 1901.1,1949.1 					" />
						<polygon id="路径_45_" class="st26" points="1731.9,1919.6 1860.2,1915.9 1814.5,1881.7 					" />
						<polygon id="路径_46_" class="st28"
							points="1597.4,1884.5 1665.2,1933.9 1731.9,1919.6 1678,1874.6 					" />
						<polygon id="路径_47_" class="st29"
							points="1755.9,1874.2 1770,1902 1731.9,1919.6 1678,1874.6 					" />
						<polygon id="路径_48_" class="st18"
							points="1755.9,1874.2 1791.1,1861.8 1814.5,1881.7 1770,1902 					" />
						<polygon id="路径_49_" class="st28" points="1791.1,1861.8 1744,1851.7 1755.9,1874.2 					" />
						<polygon id="路径_50_" class="st15"
							points="1755.9,1874.2 1678,1874.6 1643.1,1846 1707.3,1843.3 1744,1851.7 					" />
						<polygon id="路径_51_" class="st30" points="1643.1,1846 1678,1874.6 1597.4,1884.5 					" />
						<polygon id="路径_52_" class="st31" points="1681,2139.4 1786.6,2710.4 1316.7,2710.4 					" />
						<polyline id="路径_53_" class="st32" points="1915.5,1640.2 2076.4,1659.7 2076.4,1949.4 1915.5,1935.7 1915.5,1646.2 					
						" />
						<line id="路径_54_" class="st33" x1="1915.2" y1="1646.8" x2="1915.2" y2="1935.4" />
						<line id="路径_55_" class="st33" x1="1941.5" y1="1643" x2="1941.5" y2="1938" />
						<polygon id="路径_56_" class="st34"
							points="1823.8,1715.7 1823.8,1880.8 1914.9,1935.4 1914.9,1639.2 					" />

						<linearGradient id="路径_388_" gradientUnits="userSpaceOnUse" x1="1216.5361" y1="2348.6494"
							x2="1216.4171" y2="2349.0886"
							gradientTransform="matrix(91.1899 0 0 -296.21 -109059.1562 697541.4375)">
							<stop offset="0" style="stop-color:#00F1FF" />
							<stop offset="1" style="stop-color:#FED4DA" />
						</linearGradient>
						<polygon id="路径_57_" class="st35"
							points="1823.8,1715.7 1823.8,1880.8 1914.9,1935.4 1914.9,1639.2 					" />
						<polygon id="路径_58_" class="st34"
							points="1777.3,1785.2 1777.3,1843.1 1802.6,1857.4 1802.6,1773.9 					" />
						<polygon id="路径_59_" class="st36"
							points="1777.3,1785.2 1777.3,1843.1 1802.6,1857.4 1802.6,1773.9 					" />
						<polyline id="路径_60_" class="st36" points="1914.9,1639.2 2075.8,1658.8 2075.8,1949.1 1914.9,1935.4 1914.9,1645.9 					
						" />
						<polygon id="路径_61_" class="st32"
							points="1534.3,1661.9 1456.5,1779.6 1456.5,1890.3 1534.3,1908.6 					" />

						<linearGradient id="路径_389_" gradientUnits="userSpaceOnUse" x1="1219.2756" y1="2348.9221"
							x2="1219.0797" y2="2348.082"
							gradientTransform="matrix(200.42 0 0 -723.8599 -243210.9062 1701839.875)">
							<stop offset="0" style="stop-color:#FED4DA" />
							<stop offset="0.45" style="stop-color:#00F1FF" />
							<stop offset="1" style="stop-color:#1C75BC" />
						</linearGradient>
						<polygon id="路径_62_" class="st37"
							points="1242.4,2111.9 1042,2081.8 1042,1426.4 1233.5,1388.1 					" />
						<line id="路径_63_" class="st38" x1="1233.5" y1="1387.3" x2="1170.3" y2="1399.7" />
						<line id="路径_64_" class="st38" x1="1234.4" y1="1467.7" x2="1170.5" y2="1477.6" />
						<line id="路径_65_" class="st38" x1="1235.4" y1="1548.2" x2="1170.7" y2="1555.6" />
						<line id="路径_66_" class="st38" x1="1236.4" y1="1628.6" x2="1170.9" y2="1633.5" />
						<line id="路径_67_" class="st38" x1="1237.4" y1="1709.1" x2="1171.1" y2="1711.4" />
						<line id="路径_68_" class="st38" x1="1238.4" y1="1789.5" x2="1171.3" y2="1789.3" />
						<line id="路径_69_" class="st38" x1="1239.4" y1="1870" x2="1171.4" y2="1867.3" />
						<line id="路径_70_" class="st38" x1="1240.4" y1="1950.4" x2="1171.6" y2="1945.2" />
						<line id="路径_71_" class="st38" x1="1241.4" y1="2030.9" x2="1171.8" y2="2023.1" />
						<line id="路径_72_" class="st38" x1="1242.4" y1="2111.4" x2="1172" y2="2101.1" />
						<line id="路径_73_" class="st38" x1="1233.5" y1="1386.8" x2="1242.4" y2="2111.3" />
						<line id="路径_74_" class="st38" x1="1204.8" y1="1391.6" x2="1212.2" y2="2104.8" />
						<line id="路径_75_" class="st38" x1="1176.1" y1="1396.4" x2="1182" y2="2098.2" />
						<line id="路径_76_" class="st38" x1="1147.4" y1="1401.2" x2="1151.9" y2="2091.6" />
						<line id="路径_77_" class="st38" x1="1118.7" y1="1406" x2="1121.7" y2="2085.1" />
						<line id="路径_78_" class="st38" x1="1090" y1="1410.8" x2="1091.5" y2="2078.5" />
						<line id="路径_79_" class="st38" x1="1061.3" y1="1415.6" x2="1061.3" y2="2072" />

						<linearGradient id="路径_390_" gradientUnits="userSpaceOnUse" x1="1219.1022" y1="2348.5073"
							x2="1219.1365" y2="2348.8296"
							gradientTransform="matrix(193.73 0 0 -723.8599 -234849.7812 1701839.875)">
							<stop offset="0" style="stop-color:#00F1FF" />
							<stop offset="1" style="stop-color:#FED4DA" />
						</linearGradient>
						<polygon id="路径_80_" class="st39"
							points="1234.5,1388.1 1428.2,1565.7 1428.2,1993.7 1241.6,2111.9 					" />
						<line id="路径_81_" class="st38" x1="1427.2" y1="1564.5" x2="1233.5" y2="1388.1" />
						<line id="路径_82_" class="st38" x1="1427.2" y1="1612.2" x2="1234.4" y2="1468.4" />
						<line id="路径_83_" class="st38" x1="1427.2" y1="1659.8" x2="1235.4" y2="1548.8" />
						<line id="路径_84_" class="st38" x1="1427.2" y1="1707.5" x2="1236.4" y2="1629.1" />
						<line id="路径_85_" class="st38" x1="1427.2" y1="1755.2" x2="1237.4" y2="1709.5" />
						<line id="路径_86_" class="st38" x1="1427.2" y1="1802.9" x2="1238.4" y2="1789.8" />
						<line id="路径_87_" class="st38" x1="1427.2" y1="1850.6" x2="1239.4" y2="1870.2" />
						<line id="路径_88_" class="st38" x1="1427.2" y1="1898.3" x2="1240.4" y2="1950.5" />
						<line id="路径_89_" class="st38" x1="1427.2" y1="1946" x2="1241.4" y2="2030.9" />
						<line id="路径_90_" class="st38" x1="1427.2" y1="1993.7" x2="1242.4" y2="2111.2" />
						<line id="路径_91_" class="st38" x1="1427.2" y1="1565.2" x2="1427.2" y2="1993.7" />
						<line id="路径_92_" class="st38" x1="1401.2" y1="1541" x2="1401.2" y2="2010.1" />
						<line id="路径_93_" class="st38" x1="1375.1" y1="1516.9" x2="1375.1" y2="2026.6" />
						<line id="路径_94_" class="st38" x1="1348.9" y1="1492.7" x2="1348.9" y2="2043" />
						<line id="路径_95_" class="st38" x1="1322.8" y1="1468.6" x2="1322.8" y2="2059.4" />
						<line id="路径_96_" class="st38" x1="1296.7" y1="1444.4" x2="1296.7" y2="2075.9" />
						<line id="路径_97_" class="st38" x1="1270.6" y1="1420.2" x2="1270.6" y2="2092.3" />

						<linearGradient id="路径_391_" gradientUnits="userSpaceOnUse" x1="1213.9883" y1="2348.6169"
							x2="1214.0281" y2="2349.1689"
							gradientTransform="matrix(61.46 0 0 -245.2599 -73048.3047 577883.0625)">
							<stop offset="0" style="stop-color:#27AAE1" />
							<stop offset="0.38" style="stop-color:#00F1FF" />
							<stop offset="0.81" style="stop-color:#DFBDED" />
							<stop offset="1" style="stop-color:#FED4DA" />
						</linearGradient>
						<polygon id="路径_98_" class="st40"
							points="1534.3,1662.6 1535.7,1907.8 1595.8,1875.3 1595.8,1718.4 					" />

						<radialGradient id="路径_392_" cx="1220.9922" cy="2348.2349" r="1.097"
							gradientTransform="matrix(1469.86 0 0 -1469.8605 -1792288.75 3454012)"
							gradientUnits="userSpaceOnUse">
							<stop offset="0" style="stop-color:#A398EB" />
							<stop offset="0.19" style="stop-color:#00F1FF" />
							<stop offset="1" style="stop-color:#FED4DA" />
						</radialGradient>
						<polyline id="路径_99_" class="st41"
							points="2149.2,2102.3 1950.3,1974.1 1950.3,1559.2 3420.2,6.8 3420.2,2908.6 					" />
						<line id="路径_100_" class="st42" x1="1950.9" y1="1555.7" x2="3420.8" y2="5.2" />
						<line id="路径_101_" class="st42" x1="1950.9" y1="1602" x2="3420.8" y2="327.8" />
						<line id="路径_102_" class="st42" x1="1950.9" y1="1648.3" x2="3420.8" y2="650.4" />
						<line id="路径_103_" class="st42" x1="1950.9" y1="1694.6" x2="3420.8" y2="973" />
						<line id="路径_104_" class="st42" x1="1950.9" y1="1740.9" x2="3420.8" y2="1295.6" />
						<line id="路径_105_" class="st42" x1="1950.9" y1="1787.2" x2="3420.8" y2="1618.2" />
						<line id="路径_106_" class="st42" x1="1950.9" y1="1833.5" x2="3420.8" y2="1940.8" />
						<line id="路径_107_" class="st42" x1="1950.9" y1="1879.8" x2="3420.8" y2="2263.4" />
						<line id="路径_108_" class="st42" x1="1950.9" y1="1926.1" x2="3420.8" y2="2586" />
						<line id="路径_109_" class="st42" x1="1950.9" y1="1972.4" x2="3420.8" y2="2908.6" />
						<line id="路径_110_" class="st42" x1="1969.5" y1="1537.1" x2="1969.5" y2="1984" />
						<line id="路径_111_" class="st42" x1="1989.3" y1="1516.2" x2="1989.3" y2="1986.2" />
						<line id="路径_112_" class="st42" x1="2011.9" y1="1493.2" x2="2011.9" y2="1997" />
						<line id="路径_113_" class="st42" x1="2034.6" y1="1469" x2="2034.6" y2="2015.2" />
						<line id="路径_114_" class="st42" x1="2059.2" y1="1441.8" x2="2059.2" y2="2031.8" />
						<line id="路径_115_" class="st42" x1="2088.8" y1="1411.9" x2="2088.8" y2="2053.5" />
						<line id="路径_116_" class="st42" x1="2122.2" y1="1376" x2="2122.2" y2="2082.6" />
						<line id="路径_117_" class="st42" x1="2159.9" y1="1335.4" x2="2159.9" y2="2106.8" />
						<line id="路径_118_" class="st42" x1="2198.2" y1="1294.7" x2="2198.2" y2="2135.4" />
						<line id="路径_119_" class="st42" x1="2239.9" y1="1252.8" x2="2239.9" y2="2167.8" />
						<line id="路径_120_" class="st42" x1="2289.4" y1="1199.6" x2="2289.4" y2="2203.9" />
						<line id="路径_121_" class="st42" x1="2347.7" y1="1138.2" x2="2347.7" y2="2241.4" />
						<line id="路径_122_" class="st42" x1="2413" y1="1069.8" x2="2413" y2="2285.7" />
						<line id="路径_123_" class="st42" x1="2479.7" y1="999" x2="2479.7" y2="2336" />
						<line id="路径_124_" class="st42" x1="2552.4" y1="921.3" x2="2552.4" y2="2355.1" />
						<line id="路径_125_" class="st42" x1="2639.1" y1="829.4" x2="2639.1" y2="2411.3" />
						<line id="路径_126_" class="st42" x1="1823.8" y1="1715.7" x2="1914.9" y2="1639.2" />
						<line id="路径_127_" class="st42" x1="1823.8" y1="1734" x2="1914.9" y2="1672.2" />
						<line id="路径_128_" class="st42" x1="1823.8" y1="1752.3" x2="1914.9" y2="1705.1" />
						<line id="路径_129_" class="st42" x1="1823.8" y1="1770.7" x2="1914.9" y2="1738" />
						<line id="路径_130_" class="st42" x1="1823.8" y1="1789" x2="1914.9" y2="1770.9" />
						<line id="路径_131_" class="st42" x1="1823.8" y1="1807.3" x2="1914.9" y2="1803.8" />
						<line id="路径_132_" class="st42" x1="1823.8" y1="1825.6" x2="1914.9" y2="1836.7" />
						<line id="路径_133_" class="st42" x1="1823.8" y1="1843.9" x2="1914.9" y2="1869.6" />
						<line id="路径_134_" class="st42" x1="1823.8" y1="1862.2" x2="1914.9" y2="1902.5" />
						<line id="路径_135_" class="st42" x1="1823.8" y1="1880.5" x2="1914.9" y2="1935.4" />
						<line id="路径_136_" class="st33" x1="1535.3" y1="1662.8" x2="1535.3" y2="1908.2" />
						<line id="路径_137_" class="st33" x1="1519.7" y1="1685.9" x2="1519.7" y2="1904.6" />
						<line id="路径_138_" class="st33" x1="1504.1" y1="1708.9" x2="1504.1" y2="1901.1" />
						<line id="路径_139_" class="st33" x1="1488.5" y1="1732" x2="1488.5" y2="1897.5" />
						<line id="路径_140_" class="st33" x1="1472.8" y1="1755" x2="1472.8" y2="1893.9" />
						<line id="路径_141_" class="st33" x1="1457.2" y1="1778.1" x2="1457.2" y2="1890.3" />
						<line id="路径_142_" class="st33" x1="1506.3" y1="1708.1" x2="1535.3" y2="1701.1" />
						<line id="路径_143_" class="st33" x1="1480.3" y1="1744.8" x2="1535.3" y2="1735.6" />
						<line id="路径_144_" class="st33" x1="1457.2" y1="1776.9" x2="1535.3" y2="1770.1" />
						<line id="路径_145_" class="st33" x1="1457.2" y1="1805.3" x2="1535.3" y2="1804.6" />
						<line id="路径_146_" class="st33" x1="1457.2" y1="1833.6" x2="1535.3" y2="1839.2" />
						<line id="路径_147_" class="st33" x1="1457.2" y1="1862" x2="1535.3" y2="1873.7" />
						<line id="路径_148_" class="st33" x1="1457.2" y1="1890.3" x2="1535.3" y2="1908.2" />
						<line id="路径_149_" class="st42" x1="1915.2" y1="1640" x2="1915.2" y2="1935.4" />
						<line id="路径_150_" class="st42" x1="1900" y1="1652.6" x2="1900" y2="1926.3" />
						<line id="路径_151_" class="st42" x1="1884.7" y1="1665.2" x2="1884.7" y2="1917.1" />
						<line id="路径_152_" class="st42" x1="1869.5" y1="1677.8" x2="1869.5" y2="1908" />
						<line id="路径_153_" class="st42" x1="1854.2" y1="1690.5" x2="1854.2" y2="1898.8" />
						<line id="路径_154_" class="st42" x1="1839" y1="1703.1" x2="1839" y2="1889.7" />
						<line id="路径_155_" class="st42" x1="1823.8" y1="1715.7" x2="1823.8" y2="1880.5" />
						<line id="路径_156_" class="st42" x1="1535.3" y1="1662.8" x2="1535.3" y2="1908.2" />
						<line id="路径_157_" class="st42" x1="1550.2" y1="1676.5" x2="1550.2" y2="1898.5" />
						<line id="路径_158_" class="st42" x1="1565" y1="1690.2" x2="1565" y2="1888.9" />
						<line id="路径_159_" class="st42" x1="1579.9" y1="1704" x2="1579.9" y2="1879.2" />
						<line id="路径_160_" class="st42" x1="1594.8" y1="1717.7" x2="1594.8" y2="1869.5" />
						<line id="路径_161_" class="st42" x1="1535.3" y1="1662.8" x2="1595.6" y2="1717.7" />
						<line id="路径_162_" class="st42" x1="1535.3" y1="1697.8" x2="1595.5" y2="1740.2" />
						<line id="路径_163_" class="st42" x1="1535.3" y1="1732.7" x2="1595.4" y2="1762.7" />
						<line id="路径_164_" class="st42" x1="1535.3" y1="1767.7" x2="1595.3" y2="1785.2" />
						<line id="路径_165_" class="st42" x1="1535.3" y1="1802.6" x2="1595.1" y2="1807.8" />
						<line id="路径_166_" class="st42" x1="1535.3" y1="1837.6" x2="1595" y2="1830.3" />
						<line id="路径_167_" class="st42" x1="1535.3" y1="1872.5" x2="1594.9" y2="1852.8" />
						<line id="路径_168_" class="st42" x1="1535.3" y1="1907.4" x2="1594.8" y2="1875.3" />
						<polygon id="路径_169_" class="st36"
							points="1534.3,1661.9 1456.5,1779.6 1456.5,1890.3 1534.3,1908.6 					" />
						<polygon id="路径_170_" class="st34"
							points="1613.5,1756.1 1613.5,1852.5 1641.5,1841.1 1641.5,1781.2 					" />
						<polygon id="路径_171_" class="st14"
							points="1613.9,1755.9 1613.9,1852.2 1641,1840.7 1641,1780.8 					" />
						<polygon id="路径_172_" class="st43"
							points="1234.5,1388.1 1428.2,1565.2 1428.2,1993.7 1241.6,2111.9 					" />
						<polygon id="路径_173_" class="st36"
							points="1534.3,1661.9 1534.3,1909.2 1595.8,1875.3 1595.8,1718.4 					" />
						<polygon id="路径_174_" class="st14"
							points="1823.8,1716.1 1823.8,1880 1914.9,1935.4 1914.9,1639.2 					" />
						<polyline id="路径_175_" class="st43"
							points="3420.8,2908.6 1950.9,1972.4 1950.9,1557.5 3420.8,5.2 3420.8,2908.6 					" />
						<polygon id="路径_176_" class="st26"
							points="1597.4,1884.5 1550.2,1922.2 1572.5,1954.2 1665.2,1933.9 					" />
						<rect id="矩形_1_" x="2401.9" y="1232.5" class="st44" width="150.5" height="1122.6" />
						<line id="路径_177_" class="st45" x1="2398.8" y1="1269.6" x2="2548.4" y2="1269.6" />
						<line id="路径_178_" class="st45" x1="2398.8" y1="1305.8" x2="2548.4" y2="1305.8" />
						<line id="路径_179_" class="st45" x1="2398.8" y1="1342" x2="2548.4" y2="1342" />
						<line id="路径_180_" class="st45" x1="2398.8" y1="1378.2" x2="2548.4" y2="1378.2" />
						<line id="路径_181_" class="st45" x1="2398.8" y1="1414.4" x2="2548.4" y2="1414.4" />
						<line id="路径_182_" class="st45" x1="2398.8" y1="1450.6" x2="2548.4" y2="1450.6" />
						<line id="路径_183_" class="st45" x1="2398.8" y1="1486.7" x2="2548.4" y2="1486.7" />
						<line id="路径_184_" class="st45" x1="2398.8" y1="1522.9" x2="2548.4" y2="1522.9" />
						<line id="路径_185_" class="st45" x1="2398.8" y1="1559.1" x2="2548.4" y2="1559.1" />
						<line id="路径_186_" class="st45" x1="2398.8" y1="1595.3" x2="2548.4" y2="1595.3" />
						<line id="路径_187_" class="st45" x1="2398.8" y1="1631.5" x2="2548.4" y2="1631.5" />
						<line id="路径_188_" class="st45" x1="2398.8" y1="1667.6" x2="2548.4" y2="1667.6" />
						<line id="路径_189_" class="st45" x1="2398.8" y1="1703.8" x2="2548.4" y2="1703.8" />
						<line id="路径_190_" class="st45" x1="2398.8" y1="1740" x2="2548.4" y2="1740" />
						<line id="路径_191_" class="st45" x1="2398.8" y1="1776.2" x2="2548.4" y2="1776.2" />
						<line id="路径_192_" class="st45" x1="2398.8" y1="1812.4" x2="2548.4" y2="1812.4" />
						<line id="路径_193_" class="st45" x1="2398.8" y1="1848.6" x2="2548.4" y2="1848.6" />
						<line id="路径_194_" class="st45" x1="2398.8" y1="1884.7" x2="2548.4" y2="1884.7" />
						<line id="路径_195_" class="st45" x1="2398.8" y1="1920.9" x2="2548.4" y2="1920.9" />
						<line id="路径_196_" class="st45" x1="2398.8" y1="1957.1" x2="2548.4" y2="1957.1" />
						<line id="路径_197_" class="st45" x1="2398.8" y1="1993.3" x2="2548.4" y2="1993.3" />
						<line id="路径_198_" class="st45" x1="2398.8" y1="2029.5" x2="2548.4" y2="2029.5" />
						<line id="路径_199_" class="st45" x1="2398.8" y1="2065.7" x2="2548.4" y2="2065.7" />
						<line id="路径_200_" class="st45" x1="2398.8" y1="2101.8" x2="2548.4" y2="2101.8" />
						<line id="路径_201_" class="st45" x1="2398.8" y1="2138" x2="2548.4" y2="2138" />
						<line id="路径_202_" class="st45" x1="2398.8" y1="2174.2" x2="2548.4" y2="2174.2" />
						<line id="路径_203_" class="st45" x1="2398.8" y1="2210.4" x2="2548.4" y2="2210.4" />
						<line id="路径_204_" class="st45" x1="2398.8" y1="2246.6" x2="2548.4" y2="2246.6" />
						<line id="路径_205_" class="st45" x1="2398.8" y1="2282.8" x2="2548.4" y2="2282.8" />
						<line id="路径_206_" class="st45" x1="2398.8" y1="2318.9" x2="2548.4" y2="2318.9" />
						<line id="路径_207_" class="st45" x1="2398.8" y1="2355.1" x2="2548.4" y2="2355.1" />
						<line id="路径_208_" class="st45" x1="2431.7" y1="1233.6" x2="2431.7" y2="2353.4" />
						<line id="路径_209_" class="st45" x1="2469.3" y1="1233.6" x2="2469.3" y2="2353.4" />
						<line id="路径_210_" class="st45" x1="2506.9" y1="1233.6" x2="2506.9" y2="2353.4" />
						<rect id="矩形_2_" x="2401.9" y="1233.4" class="st43" width="150.5" height="1121.7" />

						<linearGradient id="路径_393_" gradientUnits="userSpaceOnUse" x1="1219.4507" y1="2348.4036"
							x2="1219.4246" y2="2348.8545"
							gradientTransform="matrix(222.79 0 0 -1123.5302 -269387.5625 2640509)">
							<stop offset="0" style="stop-color:#00F1FF" />
							<stop offset="1" style="stop-color:#FED4DA" />
						</linearGradient>
						<polygon id="路径_211_" class="st46"
							points="2401.9,1231.6 2401.9,2355.1 2179.1,2183 2179.1,1418.9 					" />
						<line id="路径_212_" class="st47" x1="2175.9" y1="1425.1" x2="2175.9" y2="2180.2" />
						<line id="路径_213_" class="st47" x1="2213" y1="1393.1" x2="2213" y2="2209" />
						<line id="路径_214_" class="st47" x1="2250.2" y1="1361.2" x2="2250.2" y2="2237.7" />
						<line id="路径_215_" class="st47" x1="2287.3" y1="1329.3" x2="2287.3" y2="2266.5" />
						<line id="路径_216_" class="st47" x1="2324.5" y1="1297.3" x2="2324.5" y2="2295.2" />
						<line id="路径_217_" class="st47" x1="2361.6" y1="1265.4" x2="2361.6" y2="2324" />
						<line id="路径_218_" class="st47" x1="2398.8" y1="1233.4" x2="2398.8" y2="2352.7" />
						<line id="路径_219_" class="st47" x1="2175.9" y1="1420.6" x2="2398.8" y2="1233.4" />
						<line id="路径_220_" class="st47" x1="2175.9" y1="1445.1" x2="2398.8" y2="1269.6" />
						<line id="路径_221_" class="st47" x1="2175.9" y1="1469.6" x2="2398.8" y2="1305.7" />
						<line id="路径_222_" class="st47" x1="2175.9" y1="1494.1" x2="2398.8" y2="1341.8" />
						<line id="路径_223_" class="st47" x1="2175.9" y1="1518.6" x2="2398.8" y2="1377.9" />
						<line id="路径_224_" class="st47" x1="2175.9" y1="1543.1" x2="2398.8" y2="1414" />
						<line id="路径_225_" class="st47" x1="2175.9" y1="1567.6" x2="2398.8" y2="1450.1" />
						<line id="路径_226_" class="st47" x1="2175.9" y1="1592.1" x2="2398.8" y2="1486.2" />
						<line id="路径_227_" class="st47" x1="2175.9" y1="1616.6" x2="2398.8" y2="1522.4" />
						<line id="路径_228_" class="st47" x1="2175.9" y1="1641.1" x2="2398.8" y2="1558.5" />
						<line id="路径_229_" class="st47" x1="2175.9" y1="1665.6" x2="2398.8" y2="1594.6" />
						<line id="路径_230_" class="st47" x1="2176" y1="1690.1" x2="2398.8" y2="1630.7" />
						<line id="路径_231_" class="st47" x1="2176" y1="1714.6" x2="2398.8" y2="1666.8" />
						<line id="路径_232_" class="st47" x1="2176" y1="1739.1" x2="2398.8" y2="1702.9" />
						<line id="路径_233_" class="st47" x1="2176" y1="1763.6" x2="2398.8" y2="1739" />
						<line id="路径_234_" class="st47" x1="2176" y1="1788.1" x2="2398.8" y2="1775.2" />
						<line id="路径_235_" class="st47" x1="2176" y1="1812.6" x2="2398.8" y2="1811.3" />
						<line id="路径_236_" class="st47" x1="2176" y1="1837.1" x2="2398.8" y2="1847.4" />
						<line id="路径_237_" class="st47" x1="2176" y1="1861.6" x2="2398.8" y2="1883.5" />
						<line id="路径_238_" class="st47" x1="2176" y1="1886.1" x2="2398.8" y2="1919.6" />
						<line id="路径_239_" class="st47" x1="2176" y1="1910.6" x2="2398.8" y2="1955.7" />
						<line id="路径_240_" class="st47" x1="2176" y1="1935.1" x2="2398.8" y2="1991.8" />
						<line id="路径_241_" class="st47" x1="2176" y1="1959.6" x2="2398.8" y2="2028" />
						<line id="路径_242_" class="st47" x1="2176" y1="1984.1" x2="2398.8" y2="2064.1" />
						<line id="路径_243_" class="st47" x1="2176.1" y1="2008.6" x2="2398.8" y2="2100.2" />
						<line id="路径_244_" class="st47" x1="2176.1" y1="2033.1" x2="2398.8" y2="2136.3" />
						<line id="路径_245_" class="st47" x1="2176.1" y1="2057.6" x2="2398.8" y2="2172.4" />
						<line id="路径_246_" class="st47" x1="2176.1" y1="2082.1" x2="2398.8" y2="2208.5" />
						<line id="路径_247_" class="st47" x1="2176.1" y1="2106.6" x2="2398.8" y2="2244.6" />
						<line id="路径_248_" class="st47" x1="2176.1" y1="2131.1" x2="2398.8" y2="2280.8" />
						<line id="路径_249_" class="st47" x1="2176.1" y1="2155.6" x2="2398.8" y2="2316.9" />
						<line id="路径_250_" class="st47" x1="2176.1" y1="2180.1" x2="2398.8" y2="2353" />
						<polygon id="路径_251_" class="st43"
							points="2401.9,1232.5 2401.9,2355.1 2179.1,2183 2179.1,1418.9 					" />
						<polygon id="路径_252_" class="st48" points="1858.6,1588.5 2051.1,1379.9 2020.1,1363.7 2162.8,1217 2117.7,1198.2 
						2478.1,831.1 2255.6,824 1981.1,1241.3 2033.9,1263.8 1905.7,1443.2 1938,1455.9 					" />
						<polygon id="路径_253_" class="st14" points="1858.6,1588.5 2051.1,1379.9 2020.1,1363.7 2162.8,1217 2117.7,1198.2 
						2478.1,831.1 2255.6,824 1981.1,1241.3 2033.9,1263.8 1905.7,1443.2 1938,1455.9 					" />
						<polygon id="路径_254_" class="st43"
							points="1242.4,2111.7 1042,2081.6 1042,1425.4 1233.5,1387 					" />
						<polygon id="路径_255_" class="st34" points="1174.2,1273.2 1174.2,2147 3.8,2906 3.8,0.7 					" />

						<linearGradient id="路径_394_" gradientUnits="userSpaceOnUse" x1="1221.014" y1="2348.0215"
							x2="1221.125" y2="2348.7898"
							gradientTransform="matrix(1170.39 0 0 -2905.29 -1428582.375 6824632)">
							<stop offset="0" style="stop-color:#27AAE1" />
							<stop offset="0.38" style="stop-color:#00F1FF" />
							<stop offset="0.81" style="stop-color:#DFBDED" />
							<stop offset="1" style="stop-color:#FED4DA" />
						</linearGradient>
						<polygon id="路径_256_" class="st49"
							points="1174.2,1253.9 1174.2,2156.1 3.8,2906 3.8,0.7 					" />
						<line id="路径_257_" class="st42" x1="1170.9" y1="1250.1" x2="0.5" y2="0.7" />
						<line id="路径_258_" class="st42" x1="1170.9" y1="1350.9" x2="0.5" y2="323.8" />
						<line id="路径_259_" class="st42" x1="1170.9" y1="1451.8" x2="0.5" y2="646.9" />
						<line id="路径_260_" class="st42" x1="1170.9" y1="1552.6" x2="0.5" y2="970" />
						<line id="路径_261_" class="st42" x1="1170.9" y1="1653.5" x2="0.5" y2="1293.1" />
						<line id="路径_262_" class="st42" x1="1170.9" y1="1754.3" x2="0.5" y2="1616.2" />
						<line id="路径_263_" class="st42" x1="1170.9" y1="1855.2" x2="0.5" y2="1939.3" />
						<line id="路径_264_" class="st42" x1="1170.9" y1="1956" x2="0.5" y2="2262.4" />
						<line id="路径_265_" class="st42" x1="1170.9" y1="2056.9" x2="0.5" y2="2585.5" />
						<line id="路径_266_" class="st42" x1="1170.9" y1="2157.7" x2="0.5" y2="2908.6" />
						<line id="路径_267_" class="st42" x1="1170.9" y1="1248.7" x2="1170.9" y2="2157.7" />
						<line id="路径_268_" class="st42" x1="1111.8" y1="1185.7" x2="1111.8" y2="2195.1" />
						<line id="路径_269_" class="st42" x1="1052.6" y1="1122.8" x2="1052.6" y2="2232.4" />
						<line id="路径_270_" class="st42" x1="993.5" y1="1059.8" x2="993.5" y2="2269.8" />
						<line id="路径_271_" class="st42" x1="934.4" y1="996.8" x2="934.4" y2="2307.2" />
						<line id="路径_272_" class="st42" x1="875.3" y1="933.8" x2="875.3" y2="2344.5" />
						<line id="路径_273_" class="st42" x1="816.2" y1="870.8" x2="816.2" y2="2381.9" />
						<polygon id="路径_274_" class="st43"
							points="1170.9,1250.1 1170.9,2157.7 0.5,2908.6 0.5,0.7 					" />
						<g id="Layer_2-4" transform="translate(1310.000000, 1548.000000)">
							<g id="Layer_1-2-4">
								<path id="形状" class="st50" d="M23.5,39.2l12.8-12.1l11.8,33l6.4-7.1L36.3,0.4L15.5,18.2L23.5,39.2 M0.9,30.6l8.7-7.5
								l8.2,21.3l-8.3,7.9L0.9,30.6z M23.4,59l12.8,33.2l11.8-13.9L54.5,96l0,0l-18.3,23.2L15.4,67l0,0L23.4,59 M52.6,72.9l6.2-7.3
								l6,17.3l-6,7.6L52.6,72.9z" />
								<polyline id="路径_275_" class="st50" points="43.3,65.3 43.3,65.3 36.2,45.9 30.8,51.5 30.8,51.5 30.1,52.1 28.8,53.4 
								28.8,53.4 28.8,53.4 36.2,73.1 43.3,65.3 43.3,65.3 							" />
							</g>
						</g>
						<path id="路径_276_" class="st51" d="M1376.6,2026l-53.1,34.4l-0.3-179.3c0-18.2,13.2-33.1,28.2-33.4l0,0
						c13.6-0.2,23.9,12,24,27.4L1376.6,2026z" />
						<polygon id="路径_277_" class="st52" points="1376.6,2024.1 1322.7,2024.1 1322.7,2061 					" />
						<g id="Layer_2-5" transform="translate(2012.000000, 1704.000000)">
							<g id="Layer_1-2-5">
								<path id="形状_1_" class="st50" d="M31.1,0.5l-7.5,10.6L5.8,36.5l-5.7,8.1v53l5.7,5.3l18,16.5l7.5,6.9l8.1-6.3l25.7-20.3
								L76.5,91V13.6l-11.3-3.2l-26-7.5L31.1,0.5z M12,84.6V51.8l19.2-24.7L55,37.2V78L31.2,99.8L12,84.6z" />
							</g>
						</g>
						<g id="Layer_2-6" transform="translate(2419.000000, 1821.000000)">
							<g id="Layer_1-2-6">
								<polygon id="路径_278_" class="st53"
									points="54.3,0.6 67.8,14.4 33.9,48.3 20.4,34.8 							" />
								<polygon id="路径_279_" class="st53"
									points="74.7,21.1 88.2,34.8 33.9,89.2 20.4,75.7 							" />
								<polygon id="路径_280_" class="st53"
									points="13.4,41.5 26.9,55.3 13.4,68.7 0,55.3 							" />
								<polygon id="路径_281_" class="st53"
									points="95.2,41.5 108.6,55.3 54.3,109.6 40.8,96.1 							" />
							</g>
						</g>

						<linearGradient id="路径_396_" gradientUnits="userSpaceOnUse" x1="1201.4198" y1="2350.489"
							x2="1201.4016" y2="2349.7808"
							gradientTransform="matrix(22.89 0 0 -61.21 -26021.0781 145537.9531)">
							<stop offset="0" style="stop-color:#FED4DA" />
							<stop offset="0.46" style="stop-color:#F6B8EB" />
							<stop offset="1" style="stop-color:#00F1FF" />
						</linearGradient>
						<polygon id="路径_282_" class="st54" points="1490.2,1650.8 1467.6,1712 1490.5,1692.8 					" />
						<polygon id="路径_283_" class="st55"
							points="2287.2,1685.4 2287.2,2262.9 2323.6,2294.9 2324.6,1676.4 					" />
						<polygon id="路径_284_" class="st56" points="2287.2,2266.3 2323.1,2266.3 2323.1,2294.9 					" />
						<line id="路径_285_" class="st57" x1="2287.4" y1="2263.1" x2="2322.9" y2="2263.1" />
						<line id="路径_286_" class="st57" x1="2287.4" y1="2205.4" x2="2322.9" y2="2205.4" />
						<line id="路径_287_" class="st57" x1="2287.4" y1="2235.7" x2="2322.9" y2="2235.7" />
						<line id="路径_288_" class="st57" x1="2287.4" y1="2175.9" x2="2322.9" y2="2175.9" />
						<line id="路径_289_" class="st57" x1="2287.4" y1="2145.3" x2="2322.9" y2="2145.3" />
						<line id="路径_290_" class="st57" x1="2287.4" y1="2114.9" x2="2322.9" y2="2114.9" />
						<line id="路径_291_" class="st57" x1="2287.4" y1="2084.9" x2="2322.9" y2="2084.9" />
						<line id="路径_292_" class="st57" x1="2287.4" y1="2054.7" x2="2322.9" y2="2054.7" />
						<polygon id="路径_293_" class="st58" points="2324.3,1687.5 2287.4,1687.5 2324.6,1677.9 					" />
						<polygon id="路径_294_" class="st59"
							points="2287.2,1686.9 2287.2,2266 2323.6,2266 2324.6,1676.4 					" />
						<line id="路径_295_" class="st57" x1="2287.4" y1="2024.2" x2="2322.9" y2="2024.2" />
						<line id="路径_296_" class="st57" x1="2287.4" y1="1993.6" x2="2322.9" y2="1993.6" />
						<line id="路径_297_" class="st57" x1="2287.4" y1="1963.5" x2="2322.9" y2="1963.5" />
						<line id="路径_298_" class="st57" x1="2287.4" y1="1933.8" x2="2322.9" y2="1933.8" />
						<line id="路径_299_" class="st57" x1="2287.4" y1="1903.5" x2="2322.9" y2="1903.5" />
						<line id="路径_300_" class="st57" x1="2287.4" y1="1873" x2="2322.9" y2="1873" />
						<line id="路径_301_" class="st57" x1="2287.4" y1="1842.4" x2="2322.9" y2="1842.4" />
						<line id="路径_302_" class="st57" x1="2287.4" y1="1812.2" x2="2322.9" y2="1812.2" />
						<line id="路径_303_" class="st57" x1="2287.4" y1="1781.7" x2="2322.9" y2="1781.7" />
						<line id="路径_304_" class="st57" x1="2287.4" y1="1752.2" x2="2322.9" y2="1752.2" />
						<line id="路径_305_" class="st57" x1="2287.4" y1="1721" x2="2322.9" y2="1721" />
					</g>

					<linearGradient id="路径_397_" gradientUnits="userSpaceOnUse" x1="1191.2714" y1="2352.0791"
						x2="1191.2201" y2="2352.4099"
						gradientTransform="matrix(15.22 0 0 -27.3 -16385.8145 66030.3125)">
						<stop offset="3.000000e-02" style="stop-color:#A398EB" />
						<stop offset="1" style="stop-color:#FED4DA" />
					</linearGradient>
					<polygon id="路径_306_" class="st60" points="1753,1824.8 1737.8,1813.9 1739.8,1797.5 				" />
					<polygon id="路径_307_" class="st61" points="1753,1824.8 1737.8,1813.9 1739.8,1797.5 				" />
					<path id="路径_308_" class="st62" d="M1861.5,1561c90.5-56.2,55.9-122.6-96.6-90.8c-244.3,51-435.4,170.8-412.6,215.3
					c33.3,41.6,130.3-32.5,167.5,0.5c37.2,33-329.9,122.4-268.5,216.3c48,73.3,211.7-68.1,246.6-10.3s-143.5,138.6-205.1,239.9
					c-61.6,101.4,57.2,255.2,360.8,120.3c205.5-91.3,194.2-39.1,155.5,10.3c-26.2,33.3,54.9,116.9,183.5,20.3
					c132.9-99.7,194.2-264.8,91.1-231.9c-158.7,50.7-103.5-50-37.2-119c66.3-69,185.3-151.8,48.8-210.9
					c-58.2-25.1-161.7,11.4-162.8-34.1c-1.2-45.5,293.7-150.3,199.5-173C2037.9,1491.3,1787.3,1607.1,1861.5,1561z" />
					<polygon id="路径_309_" class="st63" points="1643.1,1846 1701.9,1843.3 1677.5,1819.5 				" />
					<g id="网格" transform="translate(790.450824, 1554.137600)">
						<defs>
							<filter id="Adobe_OpacityMaskFilter_1_" filterUnits="userSpaceOnUse" x="319.5" y="231.9"
								width="1310" height="556">
								<feColorMatrix type="matrix" values="1 0 0 0 0  0 1 0 0 0  0 0 1 0 0  0 0 0 1 0" />
							</filter>
						</defs>
						<mask maskUnits="userSpaceOnUse" x="319.5" y="231.9" width="1310" height="556" id="mask-17_1_">
							<g class="st64">
								<polyline id="path-16_1_" class="st1" points="0,854.1 383.8,605.5 385.6,548.9 450.9,561.6 637.8,437.7 637.8,0 666,224.3 
								666,336 743.4,355 810.6,318.4 810.6,234.8 823.4,234.8 823.4,296.5 851.8,285 851.8,209.9 1031.9,209.9 1033.3,325.8 
								1124.5,380.7 1158.7,385.2 1158.7,423.3 1385.4,565.9 1385.4,631.6 1663.1,843.4 494.6,801 351.7,708.3 351.7,636.3 							
								" />
							</g>
						</mask>
						<g id="位图" class="st65">
							<g transform="translate(319.549176, 231.862400)">
								<g style="enable-background:new    ;">
									<image style="overflow:visible;" width="672" height="478" xlink:href="3B4A4F67.png"
										transform="matrix(1 0 0 1 638 78)">
									</image>
								</g>
								<image style="overflow:visible;enable-background:new    ;" width="672" height="478"
									xlink:href="3B4A4F65.png">
								</image>
							</g>
						</g>
					</g>
				</g>
			</g>
			<defs>
				<filter id="Adobe_OpacityMaskFilter_2_" filterUnits="userSpaceOnUse" x="867.2" y="608.4" width="207.9"
					height="374">
					<feColorMatrix type="matrix" values="1 0 0 0 0  0 1 0 0 0  0 0 1 0 0  0 0 0 1 0" />
				</filter>
			</defs>
			<mask maskUnits="userSpaceOnUse" x="867.2" y="608.4" width="207.9" height="374" id="mask-2_2_">
				<g class="st66">
					<rect id="path-1_2_" class="st1" width="1920" height="1210" />
				</g>
			</mask>
			<g id="人" class="st67">
				<g transform="translate(868.000000, 609.000000)">
					<path id="路径_310_" class="st68"
						d="M154,12.6c-31.1,10-35,7.9-48.1,6.1C92.8,16.8,121,40.9,121,40.9S153.8,22.9,154,12.6z" />
					<path id="路径_311_" class="st68" d="M62.3,23.8c3.7-5.7,4.7-9.5,8.6-11.8c8.8-5.3,8.5-4.4,16.4-4.9c5.4-4.8,14.5-4.4,22-4.6
					c0,0-1.6,10.2-2.1,14.9c0,0,5.1-8.6,12-7.3s27.2-0.3,27.2-0.3s-2.6,16.6-32.9,19.4l32.8,1.4c-4.7,4.5-9.9,8.4-15.5,11.5
					c0,0,15.6,2.9,17.9,9.4c-2.3,2.4-4.4,5-6.3,7.7c-4,6.4-11.2,10.1-18.7,9.8l-4.8-1.8c-1.4,2.3-3.8,3.9-6.4,4.4
					c-4.4,0.8-15.3,0.2-15.3,0.2l-16.5-7.6L60.3,53.3l0.1-17.9L62.3,23.8z" />
					<path id="路径_312_" class="st68"
						d="M96.7,3.2c34-0.4,32.3,0.8,40.4,0c0,0-16.2,22.5-36.3,24.4S96.7,3.2,96.7,3.2z" />
					<path id="路径_313_" class="st21" d="M47,141.2l-9.7,14.5l-7.4,24.6l2,2.7l2.7,48.8l12.8,34.8c0,0-4.8-1.4-6.1,1.1
					c-1.3,2.5-2.4,2.7-0.9,7.3c1.5,4.6,1.2,5.8,1.2,5.8L52,292l9.6,1.3l1.7-8.4l-6.6-13l-0.7-33.5l-6.5-6.9L67.1,203l3.7-0.2l7.8-13
					l9.3,10.5l2,0.8l25.2,31.3l7,2.6l3-0.9l20.5-24.9l-20-32.7l-4.2-13.4l-15.4-21.1l-3-1.2l-2.4-11.8l14.5-3.5l5.5-8.3l-1.1-8.7
					c0,0-9.2-31.1-10.3-33s-7.7-6-7.7-6l-5.8-1.7l-2.2-4L90,62.3l-0.7-3.8c0,0-3.6-4-5.6-3.6c-2,0.4-3.5,0.6-5.3-0.4
					s-5.9-7.1-5.9-7.1c0.3-2.7,0.2-5.3-0.1-8c-0.5-5-2.1-7.7-5.3-8.6l-2.8-9.9l-2.6,4.4l-2.3-13l-2.8-8.8l-8.2-2.9l-8.5,4.3
					L22.6,38.6L10.9,51.9l-0.8,7.3l-5.8,6.5l2.6,8.2l-4.5,9.5l1,0.6l-3,6c-0.4,0.8-0.3,1.8,0.3,2.5c0.6,0.7,1.6,0.9,2.5,0.5
					c1-0.4,1.8-1.2,2.3-2.1c1.8-3.3,4.6-11.3,4.6-11.3s4.7-7.4,7-8.5s4.1-0.3,4.8,1.9c0.7,2.2,1.2,8.6,1.3,11.2
					c0.1,2.6,1.8,11,5.2,11.4c3.3,0.4,2.3-7.1,2.3-7.1s1.3-24.2,2.7-27.8l-4.2-6.9l12.7-14l4.5,38.7l-1.9,0.3l0.8,12.9
					c0,0-3.4,8.5-1.6,13.1c1,2.6,2.2,5.2,3.5,7.6l2.5,27.2L47,141.2z" />
					<path id="路径_314_" class="st69" d="M47,141.2l-9.7,14.5l-7.4,24.6l2,2.7l2.7,48.8l12.8,34.8c0,0-4.8-1.4-6.1,1.1
					c-1.3,2.5-2.4,2.7-0.9,7.3c1.5,4.6,1.2,5.8,1.2,5.8L52,292l9.6,1.3l1.7-8.4l-6.6-13l-0.7-33.5l-6.5-6.9L67.1,203l3.7-0.2l7.8-13
					l9.3,10.5l2,0.8l25.2,31.3l7,2.6l3-0.9l20.5-24.9l-20-32.7l-4.2-13.4l-15.4-21.1l-3-1.2l-2.4-11.8l14.5-3.5l5.5-8.3l-1.1-8.7
					c0,0-9.2-31.1-10.3-33s-7.7-6-7.7-6l-5.8-1.7l-2.2-4L90,62.3l-0.7-3.8c0,0-3.6-4-5.6-3.6c-2,0.4-3.5,0.6-5.3-0.4
					s-5.9-7.1-5.9-7.1c0.3-2.7,0.2-5.3-0.1-8c-0.5-5-2.1-7.7-5.3-8.6l-2.8-9.9l-2.6,4.4l-2.3-13l-2.8-8.8l-8.2-2.9l-8.5,4.3
					L22.6,38.6L10.9,51.9l-0.8,7.3l-5.8,6.5l2.6,8.2l-4.5,9.5l1,0.6l-2.8,5.7c-0.5,0.9-0.3,2,0.5,2.7c0.7,0.7,1.8,0.8,2.7,0.3
					c0.8-0.4,1.4-1.1,1.8-1.8c1.8-3.3,4.6-11.3,4.6-11.3s4.7-7.4,7-8.5s4.1-0.3,4.8,1.9c0.7,2.2,1.2,8.6,1.3,11.2
					c0.1,2.6,1.8,11,5.2,11.4s2.3-7.1,2.3-7.1s1.3-24.2,2.7-27.8l-4.2-6.9l12.7-14l4.5,38.6l-1.9,0.3l0.8,12.9c0,0-3.4,8.4-1.6,13.1
					c1,2.6,2.2,5.2,3.5,7.6l2.5,27.2L47,141.2z" />
					<path id="路径_315_" class="st70" d="M47.3,267.2l1.1,3.8l-1.1,3.6l5.5,6.1l8.2-1l2.3,5.8l-1.4,7.5l-9.8-1.2l-10.7-11
					c0,0-2.7-10.4-1.1-11.9C41.8,267.4,44.4,266.8,47.3,267.2z" />
					<path id="路径_316_" class="st71" d="M70.5,163.8L51,198.4l1,0.4c4,1.7,8.3,3,12.6,3.9l2.7-0.4l9.4-15.5l2.5-1.8l8.2,9
					l10.7-5.4C98.1,188.7,79,188.8,70.5,163.8z" />
					<path id="路径_317_" class="st72" d="M46.8,141.5l-9.5,14.8L30,179.8l3.2,4.3l2.4,3.2l18-34.5c0,0,4-5.3,14.3-10.5
					c5.4-2.8,25.2,3.9,33.3,4.4c7.4,0.5,3.4-5.3,3.4-5.3s-17-7.4-31.1-7C59.4,134.9,50.9,138.6,46.8,141.5z" />
					<path id="路径_318_" class="st21" d="M104,141.4l-1-0.4l-2.4-11.8l14.5-3.5l0.2-0.4l3.4-18.9c-2.1-7.2-8.7-29.2-9.7-30.8
					c-1.1-1.9-7.7-6-7.7-6l-5.8-1.7l-2.2-4l-3.4-1.6l-0.7-3.8c0,0-3.6-4-5.6-3.6c-2,0.4-3.6,0.6-5.3-0.4c-1.7-1-5.9-7.1-5.9-7.1
					c0.2-2.2,0.2-4.5,0-6.7l-11.1,5.2L44.9,66l1.4,12.5l-1.9,0.3l0.8,12.9c0,0-3.4,8.4-1.6,13.1c1,2.6,2.2,5.2,3.5,7.6l2.5,27.1
					c3-1.3,11-4.5,19.3-4.5C78.6,135.1,100.3,140.4,104,141.4z" />
					<path id="路径_319_" class="st73" d="M46.4,78.4l3.6,14l-1,16.1l-2.1,3.6c0,0-3.7-6.8-3.1-11.1c0.6-4.3,1.4-9.2,1.4-9.2
					l-0.8-13.1L46.4,78.4z" />
					<path id="路径_320_" class="st74" d="M72.3,39.4c-0.5-5-2.1-7.7-5.3-8.6l-2.8-9.9l-2.6,4.4l-2.3-13l-2.8-8.8l-8.2-2.9
					l-8.5,4.3L22.6,38.6L10.9,51.9l-0.8,7.3l-5.8,6.5l2.6,8.2l-4.5,9.5l1,0.6l-3,6.1C0,91,0.1,92,0.7,92.6c0.6,0.6,1.6,0.8,2.4,0.5
					c1-0.4,1.9-1.2,2.5-2.1c1.8-3.3,4.6-11.3,4.6-11.3s4.7-7.4,7-8.5s4.1-0.3,4.8,1.9c0.7,2.2,1.2,8.6,1.3,11.2s1.8,11,5.2,11.4
					s2.3-7.1,2.3-7.1s1.3-24.2,2.7-27.8l-4.2-6.9l12.7-14L46.3,78c4.3-1.7,8.3-3.9,12-6.5c5.6-4.3,9.1-13.1,9.1-13.1L66.8,47
					l5.7,0.1C72.6,44.6,72.6,42,72.3,39.4L72.3,39.4z" />
					<path id="路径_321_" class="st75" d="M3.8,83.6L2,87.4c0,0,4.9,1.1,6.2-2l0.7-3.2L3.8,83.6z" />
					<path id="路径_322_" class="st75"
						d="M6.5,73.9c0,0-4.7,7.7,1.8,8l2-3.3c-1.2-0.4-2.1-1.4-2.4-2.6C7.6,74,6.5,73.9,6.5,73.9z" />
					<polygon id="路径_323_" class="st76" points="10.1,59.2 4.4,65.6 6,69.5 9.5,64.5 				" />
					<polygon id="路径_324_" class="st76"
						points="39.3,5 22.3,38.6 10.8,51.7 12.9,56 24.6,40.8 52.6,2.2 48.3,0.4 				" />
					<path id="路径_325_" class="st75" d="M25.7,50.2c0,0-1.7,10.8-12,13.3l-0.5,11c0,0,3.6-5.8,6.8-3.7c3.2,2.2,3,6.3,3,6.3
					l9.3-12l0.6-5.1L25.7,50.2z" />
					<path id="路径_326_" class="st75"
						d="M55.1,20.9c0,0,2.7,29.5-10.7,36.2l-2.7-17.6L52,27.4L55.1,20.9z" />
					<path id="路径_327_" class="st74" d="M120.5,117.3l-1.1-8.7c0,0-6.5-22-9.2-30.1l0.2,15.9l0.3,8.4l-8.8,25.4l0.5,0.5l12.7-3
					L120.5,117.3z" />
					<polygon id="路径_328_" class="st75" points="110.7,102.8 114.1,112.6 111.4,121.9 102.2,125.2 				" />
					<path id="路径_329_" class="st74" d="M126,224.4c1.4-4.8-0.8-10-2.6-19.9c-1.8-9.9,3-20.2,3-20.2l0.4-1.6
					c0,0-2.2,0.2-12.2,2.3s-24,7-26.7,10.4c-0.7,1-1.2,2.1-1.5,3.2l1.5,1.7l2,0.8l25.2,31.3l7,2.6l3-0.9
					C125.4,231.2,125.1,227.7,126,224.4z" />
					<path id="路径_330_" class="st77"
						d="M125.1,187.2c0,0-12.4,7.5-13.2,17l11.2-0.5C123.1,203.7,123.3,190.7,125.1,187.2z" />
					<path id="路径_331_" class="st75" d="M89.6,193.9l28.2,34.3c0,0,7,3.5,7.9,1.7c0.9-1.8,0.6-10.4,0.6-10.4s-11.5,4.2-15.6-9
					c0-12.6,11.4-21.4,11.4-21.4l1-5.5C123.1,183.5,98.1,187.4,89.6,193.9z" />
					<path id="路径_332_" class="st74" d="M68.6,203L68.6,203c0-0.1-11.8-1.3-17.6-4.6c-5.2-2.9-13-6.8-19.1-15l2.7,48.5l12.8,34.8
					l1.2,3.5l-1.6,4.8l5.6,6.4l8-2.1l-3.8-7.5l-0.7-33.5l-6.5-6.9l17.6-28.5L68.6,203z" />
					<path id="路径_333_" class="st77"
						d="M34.4,231.5l8.6-36.6c0,0-10.5-9.2-10.8-10.5C31.9,183.1,34.4,231.5,34.4,231.5z" />
					<path id="路径_334_" class="st75" d="M51.8,199.4L41,227.2l1.4,8.1c5.6,11,8.7,23,9.1,35.3l1,10.8l5.8-1.4l-4.3-8.7L52.8,240
					l-6.5-9l17.8-28.2h0.4c-4.3-0.8-8.6-2.1-12.6-3.9L51.8,199.4z" />
					<path id="路径_335_" class="st78" d="M58.6,12.2l-6,15.1L29,53.7l-3.2-4.3c-1.5,12.8-12.4,14.3-12.4,14.3
					c0.8,8.6-0.9,12.4-2.6,14.1c-0.4,0.4-1.1,0.5-1.6,0.2c-0.5-0.3-0.8-0.9-0.8-1.4l2.6-24.9l11.5-13.1L39.4,5l8.9-4.6l8.4,3l3,11.4
					l7.8,43.7" />
					<path id="路径_336_" class="st78" d="M42,39.4c0.3,0.4,4.4,38.5,4.4,38.5" />
					<line id="路径_337_" class="st78" x1="49.4" y1="68.2" x2="48.7" y2="77.2" />
					<polyline id="路径_338_" class="st78" points="10.1,58.8 4.4,65.6 8.1,76.4 				" />
					<path id="路径_339_" class="st78" d="M6.7,74l-3.4,7.3c-0.3,0.7-0.2,1.4,0.2,2c0.5,0.6,1.2,0.8,1.9,0.6c2.7-0.9,4.7-3.2,5.1-6
					" />
					<path id="路径_340_" class="st78"
						d="M3.8,83.8l-3.4,6.1C0,90.6,0.1,91.5,0.7,92s1.4,0.7,2.1,0.3c2.6-1.6,5.5-4.8,6.9-11.8" />
					<path id="路径_341_" class="st79" d="M12,76.1c0,0,3.2-5.6,6.9-5.5c3.8,0.1,3.9,8.3,3.9,8.3s-0.2,15.7,6,17.1
					c1.9,0.6,1.7-5.2,2-12.5c0.3-7.3,2.6-23,2.6-23L29,53.7" />
					<path id="路径_342_" class="st78" d="M49.5,138.8c0.5-5.4-2.6-26.8-2.6-26.8c-6.3-9.2-1.8-20.3-1.8-20.3s0.3-8.1-0.8-13.1
					c16.6-3.4,23.5-20,23.5-20L66.8,47l5.5,0.1c0,0,3,8.6,10.3,7.8c0,0,5.8-0.3,7,7.2l4.3,1.8l1.9,4.1c0,0,10.7,2.2,13.2,7.4l2,27.3
					l-10,24.8" />
					<line id="路径_343_" class="st78" x1="99.3" y1="119.1" x2="103.1" y2="140.2" />
					<polyline id="路径_344_" class="st78"
						points="100.9,128.8 115.3,125.5 120.7,117.1 119.6,109.1 109.6,76.6 				" />
					<path id="路径_345_" class="st78" d="M77.8,190.6l-7.5,12.6c0,0-26.5-0.2-40.3-23.3l7.3-23.5l9.5-14.8c0,0,16.3-14.6,57.8,0
					l10.2,13.5c4.4,5.8,7.9,12.4,10.2,19.4l2.6,8.1c0,0-51,8.7-39,18.6l-17.4-20" />
					<polyline id="路径_346_" class="st78" points="66.8,203.2 49.4,231.5 55.9,238.4 56.7,271.8 61,279.9 52.7,281.2 47,275.1 
					48.6,270.2 34.4,231.5 32.2,182.9 				" />
					<path id="路径_347_" class="st78" d="M46.6,266.8l-2.7,0.1c-1.3,0-2.5,0.6-3.3,1.6s-1.1,2.3-0.9,3.5l1.6,8.8l10.9,11.1
					l9.5,1.2l1.4-7.7l-2.2-5.5" />
					<polyline id="路径_348_" class="st78" points="42.4,223.7 45.1,229.1 48.2,223.5 				" />
					<polyline id="路径_349_" class="st78" points="66.8,34.1 68.5,37.1 67.2,42.7 				" />
					<polyline id="路径_350_" class="st78" points="87.3,196.9 115.3,232.9 122,235.4 147.3,223.6 				" />
					<path id="路径_351_" class="st78" d="M111.4,211c0,0-2.8-22.5,25.1-27.8" />
					<line id="路径_352_" class="st78" x1="124.7" y1="183" x2="129.9" y2="192.6" />
					<path id="路径_353_" class="st78" d="M61.6,25.2c0,0,0.6-2.8,4-7.2" />
					<path id="路径_354_" class="st78" d="M67,15.7C75.6,5,91.1,6.7,94.6,9" />
					<path id="路径_355_" class="st78" d="M89.6,58.1c12.3,0.8,14.6,16.9,24.5,12.8" />
					<path id="路径_356_" class="st78"
						d="M96.9,54.4c17.7,3.8,20.2,17.5,34.2,12.7c7.4-2.6,12.3-13.1,12.3-13.1" />
					<path id="路径_357_" class="st78" d="M116.5,40.8c9.9-3.2,20.8-6.5,34.9-25.5" />
					<path id="路径_358_" class="st78" d="M81.8,9.5c7.7-5.6,19.5-8.9,39.7-5.3" />
					<path id="路径_359_" class="st78" d="M71.5,42.7c0.9-5.4,0.1-11.4-4.5-11.8L63.8,21" />
					<path id="路径_360_" class="st78" d="M118.2,49.5c8.5-3.3,22.8-9,30.3-2.7" />
					<path id="路径_361_" class="st78" d="M128,24.5c-22.7,9.2-20.5,25.3-43.3,20" />
					<path id="路径_362_" class="st80" d="M92.2,306.6c2.4-27.8,26.5-50.8,31.6-66.8c5.5-17.3,0.4-29.6,0.4-29.6
					c-3-18.9,3.4-27.8,3.4-27.8l21.4-25.9l27.4,65.6l-50.3,74.6L92.2,306.6z" />
					<path id="路径_363_" class="st80" d="M176.3,147.2c-12.8-3.4-35.2,6.5-39.2,38.1s3.8,41.1-10.5,63.8s-38.9,37.8-34.6,77.8
					s23.4,57.7,58.2,36.3s36.1-67.7,31.5-82.3c-4.6-14.6,8.4-47,8.4-47S234,162.8,176.3,147.2z" />
					<path id="路径_364_" class="st81" d="M176.3,147.2c-12.8-3.4-35.2,6.5-39.2,38.1s3.8,41.1-10.5,63.8s-38.9,37.8-34.6,77.8
					s23.4,57.7,58.2,36.3s36.1-67.7,31.5-82.3c-4.6-14.6,8.4-47,8.4-47S234,162.8,176.3,147.2z" />
					<path id="路径_365_" class="st82" d="M123.5,266.9l-10-0.4l-7.5,8.2c-1.8,1.6-6.7,7.5-11.4,20.4c-4.8,12.9-6.6,65,23,77
					c31.8,0,46.4-20.5,56.8-35.1c10.4-14.6,9.4-48.8,8.1-52.9c-1.3-4.1-2.1-13.1-2.1-13.1l-8.1-0.4l-0.4,9.4l-28.5,0.4l-23.5-5.6
					l-0.3-1l-2,1.3L123.5,266.9z" />
					<path id="形状_2_" class="st82" d="M152.5,185.8l38-14c1,2.4,1.7,5,2.2,7.6l4.6,7.2l-1.1-12.9l-3.5-7.9
					c-4.5-7-14.8-10.4-23.8-10.3c-9,0.1-20,12.4-22.8,26l-1.9,19.6c0.8-4.5,2-9,3.6-13.3c8.1,4.3,36,19.2,41.8,22.6l-44.1,30.4
					l-2.9-7.1l-1.8,4.2l9.6,26.5l-30.9,9.5l6.7,2.4l46.5-13.4l0.8-5.6l-19,5.8l-8.7-21.5l2.4,4.5l40.3-28.5l3.7-7.3l-0.9-0.2
					c0.6-1.1,1.5-2.9,1.5-2.9L152.5,185.8z M159.5,165.4c5.3-7.4,13.1-4.9,21.9-3.2c2.9,0.5,5,2.5,6.7,5l-36.9,12.6
					C153.5,174.7,156.3,169.9,159.5,165.4L159.5,165.4z M149.4,183.9l0.8,0.6l-0.9-0.5L149.4,183.9z" />
					<path id="路径_366_" class="st78" d="M123.6,364.1c-16.1,0-21.7-20.7-23.6-38.1c-2.9-26.6,8.1-40,20.7-55.6
					c4.6-5.4,8.8-11,12.7-16.9c10.6-16.8,10.5-27.7,10.5-41.6c-0.2-8.5,0.2-17,1.3-25.5c3.2-25,18.4-31.6,25.9-31.6c1,0,2,0.1,3,0.4
					c11.3,3.1,18.4,8.5,21.6,16.6c7.4,18.6-6.7,48.1-12.7,57.8l-0.4,0.6l-0.3,0.7c-2.4,5.9-13.8,36-8.6,52.5
					c3.1,9.9,4,53.2-27.9,72.8C137.2,361.5,129.8,364.1,123.6,364.1L123.6,364.1z" />
					<polyline id="路径_367_" class="st78" points="193.4,207.5 146.3,182.4 191.6,166.2 				" />
					<line id="路径_368_" class="st78" x1="193.4" y1="207.5" x2="146.5" y2="240.3" />
					<line id="路径_369_" class="st78" x1="142.4" y1="233" x2="154.9" y2="262.7" />
					<polyline id="路径_370_" class="st78" points="174.6,256.6 118,274.1 174,287.8 				" />
					<polyline id="路径_371_" class="st78" points="100.2,312.1 113.1,340 128.6,343.2 140.9,358.9 				" />
					<line id="路径_372_" class="st78" x1="128.6" y1="343.2" x2="110.8" y2="357.7" />
					<line id="路径_373_" class="st78" x1="125.9" y1="325.8" x2="122.8" y2="334.6" />
					<line id="路径_374_" class="st78" x1="139.7" y1="284.7" x2="137.1" y2="292.6" />
					<line id="路径_375_" class="st78" x1="135.9" y1="329" x2="133" y2="338" />
					<line id="路径_376_" class="st78" x1="149.9" y1="288.1" x2="147.2" y2="296" />
					<path id="路径_377_" class="st78" d="M127.9,289.5l26.9,9c4.2,1.4,6.6,6,5.2,10.3l0,0c-0.7,2.1-2.1,3.9-4.1,4.9
					c-2,1-4.3,1.2-6.4,0.5l-27.4-8.6L127.9,289.5z" />
					<path id="路径_378_" class="st78" d="M122.3,305.6l-5.4,17l27.6,9.8c2.4,0.8,5,0.7,7.2-0.4c2.3-1.1,4-3.1,4.8-5.5l0,0
					c0.8-2.4,0.6-5-0.5-7.2c-1.1-2.2-3.1-3.9-5.5-4.7L122.3,305.6z" />
					<path id="路径_379_" class="st83" d="M65,24.2c0,0-2.2,6.5-2.1,10.2c0.1,3.7,2.8,12.9,2.8,12.9l6-0.1c0,0,0.8-9.8,0-11.7
					c-0.8-1.9-4.3-4.6-4.3-4.6L65,24.2z" />
					<path id="路径_380_" class="st84" d="M66.4,46.9l1,12.4l10.2,3.9l7-0.5l6.5,4.6l4.8,1.1l-2.4-4.8l-3.8-1.2c0,0-1.5-4.4-3.8-6
					c-2.3-1.6-8.6-2-8.6-2l-4.4-5.6l-1.1-1.7L66.4,46.9z" />
					<path id="路径_381_" class="st62" d="M51,198.4l1,0.4L51,198.4z" />
					<polygon id="路径_382_" class="st73" points="77.8,70.3 59.3,88.8 54.5,82.1 70,67.6 71.4,64.4 				" />
					<path id="路径_383_" class="st73" d="M80.5,67.9l13.6,1.8l7.4,4.3l3.5,3.8l-4.3,1.3c0,0-3.5-6.3-7.7-6.3
					c-4.2,0-11.5,1.7-11.5,1.7L80.5,67.9z" />
					<path id="路径_384_" class="st78" d="M135,20.4c-16.2,5-32.4-14.4-56.2-4.3" />
				</g>
			</g>
			<defs>
				<filter id="Adobe_OpacityMaskFilter_3_" filterUnits="userSpaceOnUse" x="-770.5" y="1128.8"
					width="3420.3" height="1056.6">
					<feColorMatrix type="matrix" values="1 0 0 0 0  0 1 0 0 0  0 0 1 0 0  0 0 0 1 0" />
				</filter>
			</defs>
			<mask maskUnits="userSpaceOnUse" x="-770.5" y="1128.8" width="3420.3" height="1056.6" id="mask-2_4_">
				<g class="st85">
					<rect id="path-1_4_" class="st1" width="1920" height="1210" />
				</g>
			</mask>
			<polygon id="路径_395_" class="st86" points="2649.8,1770 2436.5,1532.9 1914.3,1196.5 1556.3,1128.8 1265.7,1198.4 
			736.5,1174.6 495.3,1141.1 -26,1191.9 -770.5,1664.6 -768.7,1689.1 -273.2,2185.4 2325.5,2185.4 		" />
		</g>
	</g>
</svg>